<svg width="101" height="101" viewBox="0 0 101 101" fill="none" xmlns="http://www.w3.org/2000/svg">
<g id="Group 1000001540">
<path id="Vector" d="M100.509 96.3994H0.491699V100.5H100.509V96.3994Z" fill="#E6BC88"/>
<path id="Vector_2" d="M0.491699 67.2975C3.07268 67.0388 6.30564 67.6423 8.8004 67.3083C9.06982 67.2705 9.31768 67.2705 9.4901 67.0173L18.2676 42.0966H15.1424V37.9961H24.13L12.3782 71.1716L0.491699 71.204V67.2975Z" fill="#E6BC88"/>
<path id="Vector_3" d="M37.9991 37.9912V42.0971H33.6023L28.0739 66.8508L28.3272 67.298H72.6727L72.9313 66.8508L67.3975 42.0971H63.0007V37.9912H71.0131L78.0448 71.2045H22.9551L29.9868 37.9912H37.9991Z" fill="#E6BC88"/>
<path id="Vector_4" d="M50.3059 49.5162C48.7002 47.2478 46.8736 45.044 45.2571 42.7432C38.1392 32.5971 27.3681 15.2361 39.357 4.68586C50.3544 -4.99147 68.0118 3.22026 67.1066 17.9787C66.5462 27.101 57.9627 40.243 52.3319 47.3501C51.8793 47.9213 51.2435 48.8427 50.7747 49.3115C50.613 49.4731 50.6023 49.5917 50.3005 49.5162H50.3059ZM50.6939 42.8725C55.0207 36.191 60.6191 28.8415 62.4834 20.9584C66.2552 4.98761 46.1893 -1.20352 39.4647 11.0278C37.0508 15.4139 37.9398 19.7622 39.5617 24.2183C41.981 30.8674 46.3294 36.9562 50.2951 42.7432L50.6993 42.8671L50.6939 42.8725Z" fill="#E6BC88"/>
<path id="Vector_5" d="M85.8582 37.9912V42.0971H82.733L91.8177 67.298H100.509V71.2045H88.5955L76.8706 37.9912H85.8582Z" fill="#E6BC88"/>
<path id="Vector_6" d="M31.7439 27.6396H19.2432V31.7401H31.7439V27.6396Z" fill="#E6BC88"/>
<path id="Vector_7" d="M81.7522 27.6396H69.2515V31.7401H81.7522V27.6396Z" fill="#E6BC88"/>
<path id="Vector_8" d="M8.69802 81.749H2.6416V85.8495H8.69802V81.749Z" fill="#E6BC88"/>
<path id="Vector_9" d="M21.199 81.749H15.1426V85.8495H21.199V81.749Z" fill="#E6BC88"/>
<path id="Vector_10" d="M33.6995 81.749H27.6431V85.8495H33.6995V81.749Z" fill="#E6BC88"/>
<path id="Vector_11" d="M46.2058 81.749H40.1494V85.8495H46.2058V81.749Z" fill="#E6BC88"/>
<path id="Vector_12" d="M58.7068 81.749H52.6504V85.8495H58.7068V81.749Z" fill="#E6BC88"/>
<path id="Vector_13" d="M71.2073 81.749H65.1509V85.8495H71.2073V81.749Z" fill="#E6BC88"/>
<path id="Vector_14" d="M83.7078 81.749H77.6514V85.8495H83.7078V81.749Z" fill="#E6BC88"/>
<path id="Vector_15" d="M96.2141 81.749H90.1577V85.8495H96.2141V81.749Z" fill="#E6BC88"/>
<path id="Vector_16" d="M56.7075 17.1594C56.7075 20.5864 53.9272 23.3667 50.5002 23.3667C47.0733 23.3667 44.293 20.5864 44.293 17.1594C44.293 13.7325 47.0733 10.9521 50.5002 10.9521C53.9272 10.9521 56.7075 13.7325 56.7075 17.1594ZM52.6125 17.1702C52.6125 16.0063 51.6695 15.058 50.5002 15.058C49.331 15.058 48.388 16.001 48.388 17.1702C48.388 18.3395 49.331 19.2824 50.5002 19.2824C51.6695 19.2824 52.6125 18.3395 52.6125 17.1702Z" fill="#E6BC88"/>
</g>
</svg>
