<svg width="169" height="100" viewBox="0 0 169 100" fill="none" xmlns="http://www.w3.org/2000/svg">
<g id="Group 1000001539">
<path id="Vector" d="M166.595 36.3116L158.806 36.4811C153.338 31.8835 159.19 19.7853 165.002 24.1795C169.272 27.4046 169.136 32.0134 166.595 36.3116Z" fill="#E6BC88"/>
<path id="Vector_2" d="M83.6738 14.4082V99.9995H3.16553V38.1359C26.3454 37.3112 49.8416 30.3697 70.6944 20.4969C74.7667 18.5709 78.952 14.7132 83.6738 14.4082ZM81.9794 91.5274V25.4276C78.0991 28.1331 73.0215 29.0311 72.6148 34.2782C71.231 51.985 73.7444 71.4992 72.6543 89.4093L74.0438 91.4088L81.9794 91.5217V91.5274ZM70.9655 32.2054L62.1601 35.5152L61.7535 90.1436L63.7529 91.533H70.9599V32.2054H70.9655ZM59.9461 36.4414L51.4569 39.3897L50.7396 90.1379L52.7391 91.5274H59.9461V36.4414ZM48.9322 91.5274V39.836L40.4601 42.3776V91.5274H48.9322ZM37.9127 43.2248L29.0791 44.8289L28.7063 90.1436L30.7057 91.533H37.9127V43.2248ZM26.8933 91.5274V44.9192L18.4211 46.6137V91.5274H26.8933ZM7.40725 91.5274C10.4346 91.1376 14.5069 92.6739 16.7266 90.2565V47.8845L15.388 46.6871L7.40162 48.7317V91.5274H7.40725Z" fill="#E6BC88"/>
<path id="Vector_3" d="M165.876 38.1359V99.9995H85.3682V14.4082C92.7446 16.2382 99.4998 21.0899 106.577 24.1286C124.99 32.0472 145.814 37.3508 165.876 38.1359ZM87.0626 91.5274L94.9982 91.4144L96.3876 89.415L95.5517 30.076L87.0626 25.4276V91.5274ZM98.0821 32.2054V91.5274H105.289L107.289 90.1436L106.882 35.5152L98.0764 32.2054H98.0821ZM109.096 91.5274H116.303L118.302 90.1436L117.585 39.3954L109.096 36.4471V91.533V91.5274ZM120.115 39.8303V91.5217H127.322L129.322 90.1379L129.486 42.8803L120.11 39.8303H120.115ZM131.129 43.2248V91.5274H138.336L140.336 90.1436L139.963 44.8289L131.129 43.2248ZM150.621 46.6137L142.149 44.9192V91.5274H150.621V46.6137ZM161.64 91.5274V48.7317L160.245 47.5851L153.168 46.6137V91.5274H161.64Z" fill="#E6BC88"/>
<path id="Vector_4" d="M9.66662 24.8633C13.3153 28.512 12.6658 32.0138 10.6889 36.3346L2.28454 36.0578C-0.963126 31.1327 0.725649 25.8687 5.69599 23.2028C6.98941 22.7453 8.84199 24.0387 9.66662 24.8633Z" fill="#E6BC88"/>
<path id="Vector_5" d="M85.3682 13.5611V0C92.0216 1.33295 92.6486 13.3408 85.3682 13.5611Z" fill="#E6BC88"/>
<path id="Vector_6" d="M83.6739 13.5611C76.1562 12.9793 77.2859 1.98813 83.6739 0V13.5611Z" fill="#E6BC88"/>
</g>
</svg>
