<svg width="99" height="100" viewBox="0 0 99 100" fill="none" xmlns="http://www.w3.org/2000/svg">
<g id="Group 1000001538">
<path id="Vector" d="M84.1379 28.7798V53.0386H90.5067C90.6064 53.0386 91.034 53.379 91.117 53.5077C91.5239 54.1596 91.2997 59.7894 91.308 61.0432C91.3661 72.7097 91.2873 84.5339 91.308 96.2627L91.5862 96.8813H97.955C98.0173 96.8813 98.5778 97.8902 98.5985 97.9525C98.8601 98.7538 98.3743 99.6547 97.5191 99.7668C95.7255 99.9993 92.9687 99.7419 91.0423 99.7502C66.2148 99.8747 41.2917 100.24 16.4019 99.7585C15.0982 99.7336 11.7104 100.223 12.6819 97.8279C13.3047 96.2959 14.5917 97.0557 15.9369 96.8647C16.24 95.0711 16.871 93.4478 18.5276 92.5386C18.9552 92.3061 19.9973 92.0113 20.1717 91.8494C20.4208 91.621 21.2304 89.9894 21.7037 89.4289C21.9943 89.0843 22.7665 88.5778 22.8579 88.4283C23.1111 88.0048 23.2066 86.4437 23.5305 85.6881C23.9207 84.7706 24.9005 83.8697 25.8264 83.496C26.4699 83.2344 27.8109 83.168 28.1555 82.9521C28.3797 82.811 28.4295 82.375 28.6164 82.155C30.2231 80.2659 32.5979 80.1372 34.7983 81.0672V70.4677H18.9179C18.32 70.4677 17.4357 69.6581 17.5602 68.9523L17.7097 19.1228L18.2951 18.4502L90.3241 18.3672C91.1419 18.4959 91.2623 18.9567 91.3288 19.6958C91.5613 22.2616 91.1419 25.1802 91.3163 27.7834C91.3495 28.0948 90.5026 28.7757 90.3324 28.7757H84.1421L84.1379 28.7798ZM88.6218 25.9027V21.3191L88.352 21.0492H20.4374V67.5864H71.8445C72.2057 67.5864 72.8327 68.6451 72.8327 68.9357V96.8772H88.352L88.6218 96.6073V63.7253C88.4641 63.4678 88.2648 63.4762 88.0032 63.4471C86.6705 63.2893 85.0513 63.5882 83.6812 63.4471L25.6437 63.3599L25.0168 62.733L24.913 27.4222C24.6971 26.8285 25.6562 25.9027 26.0879 25.9027H88.6218ZM81.2649 28.7798H27.7943V53.0386H81.2649V28.7798ZM81.2649 55.7331H27.7943V60.765H81.2649V55.7331ZM84.1379 60.7609H88.3561L88.626 60.491V55.9988L88.3561 55.7289H84.1379V60.7609ZM40.8931 70.4636H37.6631V86.2777C38.5515 86.4687 39.2158 87.1828 39.8178 87.8055L40.8931 90.0516V70.4677V70.4636ZM46.4565 70.4636H43.5876V91.9365C44.7045 92.605 45.6469 93.344 46.4565 94.3612V70.4636ZM52.5555 70.4636H49.3254V96.8772H52.5555V70.4636ZM58.4759 70.4636H55.4243V96.8772H58.4759V70.4636ZM64.2178 70.4636H61.3489V96.8772H64.2178V70.4636ZM69.9596 70.4636H66.9081V96.8855H69.9596V70.4636ZM44.4803 96.8813C43.7703 94.9798 42.1428 94.2947 40.2621 94.0083C39.5812 93.9045 38.9792 94.2325 38.3647 93.7509C37.2562 92.879 38.5266 90.965 37.5634 89.5244C36.812 88.3992 34.6613 89.0511 34.0635 87.9965C33.4656 86.942 34.7153 85.6591 33.9306 84.3513C33.4532 83.5541 32.1786 83.4171 31.369 83.6662C30.3227 83.9901 30.8708 85.4058 29.9408 85.8293C28.8904 86.3026 26.6817 85.2813 26.0008 87.0914C25.9551 87.4526 26.0132 87.3281 26.2623 87.3571C27.4414 87.5025 29.6958 87.1329 29.7747 88.885C29.8868 91.293 27.3584 90.2551 25.9509 90.4585C24.9836 90.5997 23.8875 91.156 23.3312 91.9698C22.7748 92.7835 22.7748 94.1204 21.8698 94.4567C20.4166 95.0005 19.1088 94.6933 18.8182 96.8813H44.4761H44.4803Z" fill="#E6BC88"/>
<path id="Vector_2" d="M59.5017 34.7465C60.469 34.5223 61.3575 35.0164 61.3658 36.0543C61.3699 36.9511 59.7591 38.645 59.1072 39.3841C58.3475 40.2476 56.118 42.7885 55.3374 43.3365C53.9424 44.3081 52.4727 43.1788 53.1162 41.6509L58.9204 35.0662C59.0865 34.9126 59.2816 34.8005 59.5017 34.7507V34.7465Z" fill="#E6BC88"/>
<path id="Vector_3" d="M45.257 44.7144C44.6758 44.0791 44.8086 43.4066 45.2321 42.734C46.0334 41.4594 48.4746 39.3793 49.6039 38.1297C49.8447 37.8639 49.8862 37.4944 50.127 37.2163C52.1531 34.8498 54.4781 36.7305 52.6471 39.0223C51.0653 41.0027 48.7819 42.8419 47.1668 44.8514C46.6229 45.2915 45.722 45.2167 45.257 44.7144Z" fill="#E6BC88"/>
<path id="Vector_4" d="M25.3088 2.86685L25.2855 2.83722C24.7992 2.33057 24.1882 2.15125 23.6056 2.34613C23.0055 2.54803 22.5363 3.12037 22.4601 3.73953C22.3903 4.32728 22.6759 4.86983 23.2451 5.22709C23.4933 5.38523 23.7401 5.40264 23.9186 5.41341C23.9619 5.41916 24.0181 5.42056 24.0518 5.4257C24.0716 5.49731 24.101 5.70796 24.0783 6.32391L24.0762 6.36819C24.0178 7.88131 23.7028 8.81672 23.1116 9.22574C22.6508 9.541 21.994 9.55416 21.1522 9.26816C19.8766 8.83277 18.6737 7.87867 17.6111 7.0343L17.4947 6.94462C17.9279 6.07013 17.5352 5.27266 16.9669 4.89029C16.3859 4.49674 15.4685 4.44201 14.8199 5.24709C14.4023 5.76502 14.3857 6.48203 14.7719 7.07105C15.1109 7.58892 15.673 7.84875 16.2383 7.76232C16.523 9.00662 16.8067 10.5529 16.6377 11.8531C16.535 12.666 16.2829 13.1775 15.8703 13.4219L15.8611 13.4272C15.3928 13.6976 14.6742 13.6357 13.6714 13.2305C12.3385 12.6959 11.1083 11.7637 10.4225 11.1939C10.7979 10.688 10.8283 10.0215 10.4924 9.4557C10.1276 8.84511 9.45758 8.55834 8.78268 8.72654C7.84709 8.96529 7.49904 9.74755 7.56679 10.4189C7.63505 11.0593 8.11163 11.7622 9.00909 11.8623L9.02572 11.9603C9.27508 13.3511 9.58045 15.0787 9.29515 16.4491C9.14505 17.1694 8.83124 17.6274 8.36952 17.8078C7.36884 18.1949 5.82689 17.2981 4.91249 16.6573C5.21273 16.1917 5.22434 15.6099 4.92965 15.0941C4.5887 14.5036 3.95526 14.1895 3.31611 14.2971C2.5931 14.4193 2.0722 14.9661 1.98822 15.6943C1.90353 16.4107 2.27875 17.0552 2.94704 17.3337C3.19067 17.4361 3.40213 17.4401 3.60535 17.4458C3.70314 17.4447 3.79765 17.4486 3.89518 17.463L10.0477 22.7443C10.3664 23.1417 10.6366 23.6684 10.9003 24.1837C11.1702 24.7045 11.4498 25.2474 11.7797 25.6536C11.906 25.8083 12.2016 26.0221 12.7483 25.7065L28.1298 16.7029C28.3024 16.5971 28.7664 16.3139 28.5318 15.785C28.3198 15.2953 27.9964 14.7991 27.686 14.3201C27.3926 13.8652 27.0839 13.3944 26.8751 12.9368L25.2576 4.95712C25.2659 4.89695 25.326 4.80385 25.3798 4.72663C25.4281 4.65571 25.4796 4.57982 25.5166 4.50003C25.6958 4.08592 25.6435 3.69166 25.5642 3.32528L25.5592 3.30053L25.3114 2.87146L25.3088 2.86685ZM3.95859 15.9746C3.93165 16.0825 3.86069 16.1726 3.76611 16.2273L3.7638 16.2286C3.66922 16.2832 3.55928 16.3005 3.4511 16.2676C3.34558 16.2394 3.25442 16.172 3.19751 16.0788C3.08297 15.8804 3.14989 15.6234 3.34694 15.5066C3.44382 15.4506 3.5551 15.4356 3.66195 15.4662C3.76747 15.4944 3.85863 15.5618 3.91456 15.6587C3.9705 15.7555 3.98917 15.8678 3.95859 15.9746ZM15.7946 5.69935C16.0737 5.53819 16.4313 5.6301 16.5924 5.90923C16.7536 6.18835 16.664 6.54458 16.3849 6.70573C16.108 6.86555 15.7482 6.77497 15.587 6.49585C15.4272 6.21903 15.5168 5.8628 15.7946 5.69935ZM8.74019 10.1659C8.76847 10.0604 8.8381 9.9679 8.93268 9.9133C9.02956 9.85736 9.1395 9.84002 9.24502 9.8683C9.35285 9.89524 9.4417 9.96389 9.49897 10.0631C9.61351 10.2615 9.54757 10.5148 9.34918 10.6294L9.34688 10.6307C9.2546 10.684 9.14236 10.7027 9.0355 10.6721C8.92768 10.6451 8.83883 10.5765 8.78289 10.4796C8.72695 10.3827 8.70961 10.2728 8.73886 10.1636L8.74019 10.1659ZM25.6795 12.9011L10.6064 21.6928L7.57251 19.0431C7.69417 19.062 7.75798 19.0713 7.79729 19.0702C8.60252 19.0851 9.24524 18.8186 9.70535 18.273C10.8366 16.9402 10.6226 14.2894 10.3419 12.6152C10.397 12.6573 10.4633 12.7082 10.5359 12.7647C10.5773 12.7992 10.6098 12.8235 10.6198 12.8301C11.5937 13.4888 14.5576 15.49 16.4484 14.4445L16.483 14.4245C18.2292 13.4163 17.8422 10.2688 17.713 9.22995C17.7 9.1114 17.6723 8.98895 17.6497 8.86978C17.623 8.74369 17.595 8.61529 17.5806 8.49443C18.913 9.59828 21.3271 11.068 23.1338 10.5109C23.9118 10.2708 24.4808 9.69011 24.8379 8.77962L25.6746 12.8978L25.6795 12.9011ZM24.4569 3.7247C24.4972 3.8798 24.4416 4.06573 24.3231 4.18024C24.2521 4.24895 24.1252 4.3222 23.9366 4.26192C23.6534 4.17629 23.6117 3.93892 23.6631 3.7616C23.696 3.65342 23.7636 3.54673 23.8651 3.48813C23.9458 3.44152 24.0449 3.42125 24.1603 3.45609C24.3191 3.49668 24.4226 3.59071 24.4569 3.7247Z" fill="#E6BC88"/>
</g>
</svg>
