<svg width="101" height="100" viewBox="0 0 101 100" fill="none" xmlns="http://www.w3.org/2000/svg">
<g id="Group 1000001541">
<path id="Vector" d="M63.9165 6.63298V1.32916C63.9165 0.643706 65.0796 0.227947 65.6751 0.177381C68.0012 -0.0361205 73.3949 -0.0810681 75.6704 0.177381C76.7941 0.306606 77.1368 0.879679 77.2323 1.94157C77.6424 6.46443 76.8671 11.566 77.266 16.1507L87.3062 23.0557C88.6041 24.4547 87.3399 25.6346 86.5421 26.8651C85.8117 27.9944 84.3846 30.2418 83.5531 31.1519C81.7327 33.1465 78.974 29.4439 77.2267 28.6686V48.94C77.2267 50.0805 74.2489 50.8559 73.9118 48.7209L73.7938 26.3875L53.8707 12.4818L34.0881 26.3875L33.9757 48.7265C33.6442 50.8671 30.6608 50.0861 30.6608 48.9456V28.6742C28.9472 29.4889 26.1211 33.1296 24.3344 31.1576C23.8343 30.6069 20.3397 25.6121 20.1711 25.1346C19.952 24.4997 19.9745 23.8367 20.3734 23.2749L53.0392 0.435825C53.5448 0.109955 54.1797 0.0931082 54.7191 0.357176L63.9221 6.63861L63.9165 6.63298ZM73.8949 3.51475H67.2427V9.02645L73.8949 13.7066V3.52035V3.51475ZM53.8707 3.97545L24.0422 24.8256L26.1885 27.837L53.8538 8.71743L81.39 27.528L81.8732 27.6179L83.7947 24.9379L83.6823 24.6121L53.8707 3.97545Z" fill="#E6BC88"/>
<path id="Vector_2" d="M91.3064 42.2368C99.4812 41.1244 102.583 48.7486 98.5542 55.3054C94.5257 61.8621 89.1376 69.3515 84.6653 75.3015C81.3729 79.6726 77.6591 82.8864 71.917 83.3415C62.2364 84.1056 51.3983 82.51 41.7683 83.3415C40.4535 83.4539 38.8579 83.9314 38.1444 85.1001C39.1107 86.3642 41.3806 87.3812 40.3974 89.2465L29.6268 99.8879C28.9357 100.124 28.2446 99.989 27.739 99.4665L0.809616 72.3405C0.534311 71.4922 0.753431 71.0989 1.231 70.4527C3.70875 67.121 8.42265 63.9241 11.1083 60.5755C11.7881 59.8676 12.9062 59.8507 13.6085 60.5755L35.7453 82.7178C37.1724 81.257 39.3242 80.2064 41.3638 80.021C50.9657 79.1614 61.8262 80.7402 71.5125 80.021C75.805 79.7064 78.6985 77.6556 81.2549 74.38C86.688 67.43 91.3344 59.2271 96.5933 52.0916C98.9812 47.5688 93.874 43.3718 89.8961 46.4338C86.4183 49.1138 83.1989 53.7659 79.7042 56.6145C77.8501 57.7775 76.1421 55.8391 77.4287 54.1311C81.1088 51.3219 86.7722 42.8493 91.3064 42.2312V42.2368ZM12.3556 64.0983L4.74817 71.7057L28.9862 95.9437L36.5937 88.3363L12.3556 64.0983Z" fill="#E6BC88"/>
<path id="Vector_3" d="M30.4023 53.4681C42.2235 52.3332 55.5843 54.1985 67.5628 53.3951C77.1817 54.0637 78.4571 67.1097 69.3608 69.7673C62.4613 70.3516 55.4157 69.9302 48.4713 69.992C46.7801 69.4976 46.8925 66.9973 48.6454 66.722C54.7359 66.2782 61.5567 67.267 67.5628 66.722C73.7712 66.1546 73.7712 57.2943 67.5628 56.7268C55.6741 57.4347 42.7348 55.811 30.9697 56.7381C25.7727 57.1482 25.1153 59.1259 21.4914 61.6036C19.4631 62.9914 17.7888 60.626 19.4181 58.9068C22.0925 56.0919 26.5199 53.8389 30.4023 53.4681Z" fill="#E6BC88"/>
<path id="Vector_4" d="M60.5904 33.4495H47.2858V49.1475C47.2858 50.1757 44.2294 51.0802 43.9541 48.7373C43.3304 43.4335 44.4148 36.9217 43.9709 31.4887C44.1732 30.483 44.7688 30.2021 45.7183 30.1178C51.0109 29.6458 56.9945 30.4942 62.3658 30.1178C63.4782 30.247 63.8322 30.8088 63.9277 31.882C64.4109 37.2195 63.5569 43.2987 63.9053 48.7205C63.5738 50.8611 60.5904 50.0802 60.5904 48.9396V33.4495Z" fill="#E6BC88"/>
</g>
</svg>
