<svg width="25" height="24" viewBox="0 0 25 24" fill="none" xmlns="http://www.w3.org/2000/svg">
<path id="Vector" fill-rule="evenodd" clip-rule="evenodd" d="M2.27785 4.68821L2.27805 4.68142C2.29172 4.30513 2.4019 3.91678 2.58471 3.58117C2.7307 3.31315 2.93181 3.07693 3.21214 2.90538C3.48535 2.73819 3.9008 2.59091 4.5557 2.59091C5.2106 2.59091 5.62606 2.73819 5.89925 2.90538C6.25117 3.12073 6.48297 3.44902 6.626 3.78771C5.94703 3.95134 5.38285 4.23969 4.92648 4.61367C4.21891 5.19348 3.85218 5.91135 3.65951 6.4817C3.44022 7.13083 3.6361 7.7634 4.06327 8.20539C4.47325 8.62957 5.07349 8.86364 5.69462 8.86364H10.2503C10.8715 8.86364 11.4717 8.62957 11.8817 8.20539C12.3088 7.7634 12.5047 7.13083 12.2855 6.4817C12.0928 5.91135 11.726 5.19348 11.0185 4.61367C10.4877 4.1787 9.81105 3.85957 8.97759 3.71779C8.899 3.40179 8.77179 3.02746 8.56406 2.6461C8.28295 2.13003 7.84342 1.58216 7.16279 1.16564C6.47503 0.744762 5.60919 0.5 4.5557 0.5C3.50222 0.5 2.63638 0.744762 1.94861 1.16564C1.26798 1.58216 0.828442 2.13003 0.547333 2.6461C0.268467 3.15807 0.134701 3.65739 0.0688822 4.01989C0.0295551 4.23649 0.00144645 4.45721 1.14047e-05 4.67713L0 13.0455C0.000125282 13.1402 0.00233485 13.2337 0.00984037 13.4026C0.0194529 13.6186 0.0384957 13.9235 0.076308 14.2881C0.151443 15.0122 0.303 15.9949 0.613288 16.9917C0.919784 17.9764 1.40472 19.0531 2.19612 19.9005C3.01648 20.7791 4.17073 21.4091 5.69462 21.4091V22.4545C5.69462 23.0319 6.20454 23.5 6.83355 23.5C7.46256 23.5 7.97247 23.0319 7.97247 22.4545V21.4091H17.0839V22.4545C17.0839 23.0319 17.5938 23.5 18.2228 23.5C18.8518 23.5 19.3617 23.0319 19.3617 22.4545V21.4091C21.7397 21.4091 23.1208 19.9099 23.872 18.4223C24.6202 16.9405 24.8894 15.2275 24.991 14.1789C25.111 12.9392 24.0168 12 22.7785 12H2.27785V4.68821ZM2.34402 14.0909C2.41129 14.7388 2.54445 15.5851 2.80349 16.4174C3.06645 17.2622 3.43571 18.0151 3.9256 18.5398C4.38653 19.0334 4.94067 19.3182 5.69462 19.3182H19.3617C20.4583 19.3182 21.2267 18.6889 21.8054 17.543C22.3678 16.4292 22.6118 15.059 22.7123 14.0909H2.34402ZM9.50152 6.17346C9.70507 6.34025 9.85855 6.54862 9.97256 6.77273H5.97238C6.08639 6.54862 6.23987 6.34025 6.44342 6.17346C6.72153 5.94556 7.17381 5.72727 7.97247 5.72727C8.77113 5.72727 9.22342 5.94556 9.50152 6.17346Z" fill="#0F0F0F"/>
</svg>
