<svg width="35" height="29" viewBox="0 0 35 29" fill="none" xmlns="http://www.w3.org/2000/svg">
<g id="Group">
<path id="Vector" d="M31.6564 23.2688H30.7012V0.916996C30.7012 0.410585 30.3288 0 29.8224 0H10.107C9.60056 0 9.15181 0.410585 9.15181 0.916996V4.92885C9.15181 5.43527 9.60056 5.84585 10.107 5.84585H12.8198V9.51383H5.0635C4.55709 9.51383 4.10833 9.92442 4.10833 10.4308V23.2688H3.34413C1.76403 23.2688 0.478516 24.5543 0.478516 26.1344C0.478516 27.7145 1.76403 29 3.34413 29H31.6564C33.2365 29 34.522 27.7145 34.522 26.1344C34.522 24.5543 33.2365 23.2688 31.6564 23.2688ZM31.6564 27.166H3.34413C2.77525 27.166 2.31251 26.7033 2.31251 26.1344C2.31251 25.5655 2.77525 25.1028 3.34413 25.1028H31.6564C32.2253 25.1028 32.688 25.5655 32.688 26.1344C32.688 26.7033 32.2253 27.166 31.6564 27.166ZM5.94232 11.3478H25.8105C26.3169 11.3478 26.6894 10.9372 26.6894 10.4308V4.92885C26.6894 4.42244 26.3169 4.01186 25.8105 4.01186H10.9858V1.83399H28.8672V13.5257H9.07535C8.56894 13.5257 8.12019 13.9363 8.12019 14.4427V19.9447C8.12019 20.4511 8.56894 20.8617 9.07535 20.8617H28.8672V23.0395H5.94232V11.3478ZM24.8554 5.84585V9.51383H14.6538V5.84585H24.8554ZM20.2704 19.0277H9.95418V15.3597H20.2704V19.0277ZM22.1044 15.3597H25.1992V19.0277H22.1044V15.3597ZM27.0332 15.3597H28.8672V19.0277H27.0332V15.3597Z" fill="#171937"/>
</g>
</svg>
