<svg width="31" height="31" viewBox="0 0 31 31" fill="none" xmlns="http://www.w3.org/2000/svg">
<path id="Vector" d="M7.03961 2H11.8814M7.03961 2L2.21043 6.90559V8.13519H28.7896V6.90559L11.8814 2M7.03961 2V28.9999H11.8814V2M30 29H1M26.3687 8.13524V12.4773C26.3553 12.8968 26.4536 13.3122 26.6534 13.6797C26.8531 14.0472 27.1468 14.353 27.5035 14.565C27.8824 14.7664 28.202 15.0662 28.4298 15.4339C28.6577 15.8016 28.7855 16.224 28.8004 16.6582C28.8153 17.0923 28.7168 17.5228 28.5147 17.9057C28.3127 18.2886 28.0144 18.6103 27.6502 18.838C27.286 19.0658 26.869 19.1915 26.4414 19.2023C26.0139 19.2132 25.5912 19.1088 25.2162 18.8997C24.8413 18.6907 24.5276 18.3845 24.307 18.0123C24.0865 17.6402 23.9669 17.2152 23.9604 16.7809M11.8814 21.6352L7.03961 26.5536M7.03961 15.5L11.8814 20.4056M11.8814 9.36484L7.03961 14.2704" stroke="#171937" stroke-width="3" stroke-miterlimit="10"/>
</svg>
