<svg width="25" height="33" viewBox="0 0 25 33" fill="none" xmlns="http://www.w3.org/2000/svg">
<path id="Vector" d="M22.5 31V32.5H24.0847L23.9977 30.9177L22.5 31ZM2.5 31L1.00241 30.915L0.91245 32.5H2.5V31ZM3.19226 18.8031L4.68985 18.8881L4.68989 18.8874L3.19226 18.8031ZM12.1742 10.4878L12.1739 11.9878H12.1742V10.4878ZM13.2388 10.4878V11.9878L13.243 11.9878L13.2388 10.4878ZM21.8077 18.399L23.3055 18.3167L23.3054 18.3146L21.8077 18.399ZM5.39183 2.41155L6.70395 1.68463L6.70027 1.67808L5.39183 2.41155ZM5.69557 2.00354L5.93031 0.522012L5.92369 0.520993L5.69557 2.00354ZM8.41166 2.43391L8.647 0.952482L8.64641 0.952388L8.41166 2.43391ZM17.0331 2.46185L16.8081 0.978813L16.8074 0.97893L17.0331 2.46185ZM20.0179 2.00913L20.2428 3.49219L20.2502 3.49103L20.0179 2.00913ZM20.3158 2.42832L19.0437 1.63346L19.043 1.63456L20.3158 2.42832ZM11.7984 5.12075C11.5687 4.3248 10.7373 3.86572 9.94131 4.09538C9.14535 4.32503 8.68628 5.15646 8.91593 5.95242L11.7984 5.12075ZM10.3445 10.9036C10.5742 11.6996 11.4056 12.1587 12.2015 11.929C12.9975 11.6994 13.4566 10.8679 13.2269 10.072L10.3445 10.9036ZM16.0337 7.51303C16.344 6.7449 15.9728 5.87068 15.2047 5.5604C14.4365 5.25012 13.5623 5.62128 13.252 6.38941L16.0337 7.51303ZM11.8235 9.926C11.5132 10.6941 11.8844 11.5683 12.6525 11.8786C13.4206 12.1889 14.2948 11.8177 14.6051 11.0496L11.8235 9.926ZM8.92857 13.939C8.10014 13.939 7.42857 14.6106 7.42857 15.439C7.42857 16.2675 8.10014 16.939 8.92857 16.939V13.939ZM9.29699 21.786L9.48549 20.2979L9.44665 20.293L9.40762 20.2901L9.29699 21.786ZM9.19173 22.0223L10.3231 21.0374L10.3216 21.0357L9.19173 22.0223ZM12.7972 28.4483C13.3412 29.0732 14.2887 29.1387 14.9135 28.5948C15.5383 28.0508 15.6039 27.1033 15.0599 26.4785L12.7972 28.4483ZM16.0714 16.939C16.8999 16.939 17.5714 16.2675 17.5714 15.439C17.5714 14.6106 16.8999 13.939 16.0714 13.939V16.939ZM9.64286 13.939C8.81443 13.939 8.14286 14.6106 8.14286 15.439C8.14286 16.2675 8.81443 16.939 9.64286 16.939V13.939ZM8.92857 16.7683C8.10014 16.7683 7.42857 17.4399 7.42857 18.2683C7.42857 19.0967 8.10014 19.7683 8.92857 19.7683V16.7683ZM16.0714 19.7683C16.8999 19.7683 17.5714 19.0967 17.5714 18.2683C17.5714 17.4399 16.8999 16.7683 16.0714 16.7683V19.7683ZM22.5 29.5H2.5V32.5H22.5V29.5ZM3.99759 31.085L4.68985 18.8881L1.69467 18.7181L1.00241 30.915L3.99759 31.085ZM4.68989 18.8874C4.79423 17.0336 5.6207 15.2824 7.00986 13.9963L4.97181 11.7949C3.01972 13.6021 1.84321 16.0789 1.69463 18.7188L4.68989 18.8874ZM7.00986 13.9963C8.39999 12.7094 10.2476 11.9874 12.1739 11.9878L12.1746 8.98784C9.50092 8.98727 6.92293 9.98859 4.97181 11.7949L7.00986 13.9963ZM12.1742 11.9878H13.2388V8.98784H12.1742V11.9878ZM13.243 11.9878C15.061 11.9827 16.8058 12.6607 18.1189 13.873L20.154 11.6688C18.2783 9.93704 15.8011 8.98062 13.2346 8.98784L13.243 11.9878ZM18.1189 13.873C19.431 15.0844 20.2116 16.7356 20.3101 18.4834L23.3054 18.3146C23.1625 15.7793 22.0307 13.4014 20.154 11.6688L18.1189 13.873ZM20.31 18.4813L21.0023 31.0823L23.9977 30.9177L23.3055 18.3167L20.31 18.4813ZM11.1782 9.7609L6.70393 1.68464L4.07973 3.13846L8.55399 11.2147L11.1782 9.7609ZM6.70027 1.67808C6.81509 1.88291 6.87041 2.11992 6.85445 2.36094L3.86101 2.16261C3.83815 2.50761 3.9171 2.84837 4.08339 3.14502L6.70027 1.67808ZM6.85445 2.36094C6.83849 2.6018 6.75265 2.82749 6.61453 3.01303L4.20812 1.22161C4.00682 1.49201 3.88386 1.81777 3.86101 2.16261L6.85445 2.36094ZM6.61453 3.01303C6.47691 3.1979 6.29451 3.33393 6.09391 3.41423L4.97907 0.629066C4.67801 0.749572 4.40891 0.951883 4.20812 1.22161L6.61453 3.01303ZM6.09391 3.41423C5.89366 3.49438 5.6774 3.5184 5.46744 3.4861L5.92369 0.520993C5.60623 0.472145 5.27976 0.508705 4.97907 0.629066L6.09391 3.41423ZM5.46082 3.48506L8.17692 3.91542L8.64641 0.952388L5.93031 0.522027L5.46082 3.48506ZM8.17632 3.91533C11.1825 4.39289 14.2493 4.40283 17.2588 3.94477L16.8074 0.97893C14.1036 1.39046 11.3478 1.38153 8.647 0.952482L8.17632 3.91533ZM17.258 3.94489L20.2428 3.49217L19.7929 0.526096L16.8081 0.978813L17.258 3.94489ZM20.2502 3.49103C20.0357 3.52467 19.8144 3.49945 19.6102 3.41558L20.7504 0.640683C20.444 0.51477 20.1099 0.47637 19.7855 0.52724L20.2502 3.49103ZM19.6102 3.41558C19.4057 3.33153 19.2208 3.1893 19.0839 2.99669L21.5293 1.25886C21.3298 0.978143 21.0573 0.766762 20.7504 0.640683L19.6102 3.41558ZM19.0839 2.99669C18.9465 2.8033 18.8652 2.56939 18.8577 2.32246L21.8563 2.23107C21.8455 1.87764 21.7293 1.54034 21.5293 1.25886L19.0839 2.99669ZM18.8577 2.32246C18.8502 2.07546 18.9171 1.83609 19.0437 1.63346L21.5878 3.22317C21.7716 2.9291 21.8671 2.58456 21.8563 2.23107L18.8577 2.32246ZM19.043 1.63456L14.1248 9.52079L16.6704 11.1083L21.5885 3.22207L19.043 1.63456ZM8.91593 5.95242L10.3445 10.9036L13.2269 10.072L11.7984 5.12075L8.91593 5.95242ZM13.252 6.38941L11.8235 9.926L14.6051 11.0496L16.0337 7.51303L13.252 6.38941ZM8.92857 16.939H10.4654V13.939H8.92857V16.939ZM10.4654 16.939C11.0851 16.939 11.4975 17.0568 11.725 17.2221C11.8621 17.3218 12.1233 17.5659 12.1233 18.41H15.1233C15.1233 16.812 14.5555 15.5707 13.4887 14.7953C12.5123 14.0857 11.3457 13.939 10.4654 13.939V16.939ZM12.1233 18.41C12.1233 19.2846 11.8037 19.7131 11.4476 19.9562C11.0271 20.2431 10.3429 20.4065 9.48549 20.2979L9.1085 23.2741C10.4721 23.4469 11.9511 23.2445 13.1385 22.4342C14.3902 21.5801 15.1233 20.1799 15.1233 18.41H12.1233ZM9.40762 20.2901C9.05752 20.2642 8.71505 20.3527 8.42703 20.5326L10.0161 23.0772C9.77366 23.2285 9.48376 23.3039 9.18637 23.2819L9.40762 20.2901ZM8.42703 20.5326C8.14064 20.7114 7.92701 20.9679 7.79889 21.2555L10.5393 22.4762C10.4339 22.7128 10.2568 22.9268 10.0161 23.0772L8.42703 20.5326ZM7.79889 21.2555C7.67107 21.5425 7.62921 21.8573 7.6733 22.1624L10.6425 21.7333C10.6785 21.9825 10.6444 22.2402 10.5393 22.4762L7.79889 21.2555ZM7.6733 22.1624C7.71743 22.4677 7.84795 22.764 8.06185 23.0089L10.3216 21.0357C10.4995 21.2394 10.6064 21.4837 10.6425 21.7333L7.6733 22.1624ZM8.06038 23.0072L12.7972 28.4483L15.0599 26.4785L10.3231 21.0374L8.06038 23.0072ZM16.0714 13.939H9.64286V16.939H16.0714V13.939ZM8.92857 19.7683H16.0714V16.7683H8.92857V19.7683Z" fill="#171937"/>
</svg>
