<svg width="29" height="29" viewBox="0 0 29 29" fill="none" xmlns="http://www.w3.org/2000/svg">
<g id="Vector">
<path d="M9.94788 29H2.69794C1.209 29 0 27.7004 0 26.0998C0 25.5329 0.154168 24.979 0.446275 24.5037L3.82985 18.9781C4.32887 18.1626 5.17274 17.6741 6.08152 17.6741H13.3193L9.94788 29ZM6.08157 19.9943C5.89901 19.9943 5.73261 20.0902 5.63118 20.2559L2.2476 25.7815C2.19081 25.8774 2.15835 25.9864 2.15835 26.0998C2.15835 26.4182 2.40177 26.6799 2.69794 26.6799H8.37375L10.3617 19.9986H6.08152L6.08157 19.9943Z" fill="#171937"/>
<path d="M20 28.999H8.41306L10.1495 17.6775H18.2636L20 28.999ZM10.9568 26.6789H17.4562L16.4298 19.9933H11.9833L10.9568 26.6789Z" fill="#171937"/>
<path d="M26.3021 29H19.0522L15.6808 17.6741H22.9185C23.8273 17.6741 24.6712 18.1626 25.1702 18.9781L28.5538 24.5037C28.9514 25.1491 29.0893 25.9254 28.9432 26.6842C28.7972 27.4431 28.3874 28.0929 27.7829 28.5203C27.3448 28.8343 26.8295 29 26.3021 29ZM20.6263 26.6799H26.3021C26.4076 26.6799 26.509 26.645 26.5983 26.5839C26.7606 26.4705 26.8133 26.3048 26.8295 26.2176C26.8457 26.1304 26.8579 25.9559 26.7524 25.7815L23.3689 20.2603C23.2674 20.0945 23.1011 19.9986 22.9185 19.9986H18.6343L20.6263 26.6799Z" fill="#171937"/>
<path d="M14.5014 23.8293C13.9943 23.8293 13.4912 23.6418 13.0896 23.2667C7.98988 18.5305 5.51103 14.322 5.51103 10.4101C5.51103 4.18234 10.1604 0 14.5014 0C18.8425 0 23.4919 4.18234 23.4919 10.4101C23.4919 14.322 21.013 18.5305 15.9092 23.2667C15.5117 23.6418 15.0045 23.8293 14.5014 23.8293ZM14.5014 2.32013C11.268 2.32013 7.66938 5.64332 7.66938 10.4101C7.66938 13.5632 9.96973 17.3007 14.5014 21.5135C19.0372 17.3007 21.3335 13.5632 21.3335 10.4101C21.3335 5.64332 17.7349 2.32013 14.5014 2.32013Z" fill="#171937"/>
<path d="M14.5017 15.0822C11.7267 15.0822 9.46694 12.6531 9.46694 9.67003C9.46694 6.68701 11.7267 4.25785 14.5017 4.25785C17.2768 4.25785 19.5365 6.68264 19.5365 9.67003C19.5365 12.6574 17.2768 15.0822 14.5017 15.0822ZM14.5017 6.57362C12.9154 6.57362 11.6253 7.96046 11.6253 9.66567C11.6253 11.3709 12.9154 12.7577 14.5017 12.7577C16.088 12.7577 17.3782 11.3709 17.3782 9.66567C17.3782 7.96046 16.088 6.57362 14.5017 6.57362Z" fill="#171937"/>
</g>
</svg>
