<svg width="29" height="29" viewBox="0 0 29 29" fill="none" xmlns="http://www.w3.org/2000/svg">
<path id="Vector" fill-rule="evenodd" clip-rule="evenodd" d="M14.5 2.02326C7.60929 2.02326 2.02326 7.60929 2.02326 14.5C2.02326 21.3907 7.60929 26.9767 14.5 26.9767C21.3907 26.9767 26.9767 21.3907 26.9767 14.5C26.9767 7.60929 21.3907 2.02326 14.5 2.02326ZM0 14.5C0 6.49187 6.49187 0 14.5 0C22.5082 0 29 6.49187 29 14.5C29 22.5082 22.5082 29 14.5 29C6.49187 29 0 22.5082 0 14.5ZM14.5 8.09302C15.0587 8.09302 15.5116 8.54595 15.5116 9.10465V14.0809L18.5874 17.1568C18.9825 17.5519 18.9825 18.1923 18.5874 18.5874C18.1923 18.9825 17.5519 18.9825 17.1568 18.5874L13.7847 15.2153C13.5949 15.0256 13.4884 14.7683 13.4884 14.5V9.10465C13.4884 8.54595 13.9413 8.09302 14.5 8.09302Z" fill="#1C274C"/>
</svg>
