<svg width="14" height="18" viewBox="0 0 14 18" fill="none" xmlns="http://www.w3.org/2000/svg">
<path id="Vector" fill-rule="evenodd" clip-rule="evenodd" d="M7.26581 15.605C7.14625 15.6937 7.03481 15.7743 6.93299 15.8466C6.82435 15.7736 6.70385 15.6898 6.57319 15.5952C5.95709 15.1492 5.15807 14.4944 4.37115 13.6777C2.75709 12.0026 1.4 9.86426 1.4 7.58333C1.4 4.45372 3.9072 1.91667 7 1.91667C10.0928 1.91667 12.6 4.45372 12.6 7.58333C12.6 9.8398 11.1831 11.972 9.51001 13.6649C8.69829 14.4864 7.88144 15.1482 7.26581 15.605ZM14 7.58333C14 13.25 7 17.5 7 17.5C6.65 17.5 0 13.25 0 7.58333C0 3.67131 3.134 0.5 7 0.5C10.866 0.5 14 3.67131 14 7.58333ZM8.4 7.58333C8.4 8.36571 7.77317 9 7 9C6.22683 9 5.6 8.36571 5.6 7.58333C5.6 6.80093 6.22683 6.16667 7 6.16667C7.77317 6.16667 8.4 6.80093 8.4 7.58333ZM9.8 7.58333C9.8 9.14818 8.54644 10.4167 7 10.4167C5.45356 10.4167 4.2 9.14818 4.2 7.58333C4.2 6.01853 5.45356 4.75 7 4.75C8.54644 4.75 9.8 6.01853 9.8 7.58333Z" fill="#1A1A1A"/>
</svg>
