<svg width="186" height="62" viewBox="0 0 186 62" fill="none" xmlns="http://www.w3.org/2000/svg">
<g id="Vector">
<path d="M0 61.9989C2.14506 60.3546 4.46011 59.1631 6.78694 58.0526C9.13283 56.9882 11.5253 56.1067 13.9517 55.413C16.3745 54.6665 18.8419 54.2182 21.3134 53.8104C23.7901 53.464 26.2785 53.3193 28.7761 53.247C31.2715 53.2645 33.7622 53.4264 36.2481 53.7326C37.4868 53.9354 38.7247 54.1261 39.9508 54.3969C40.566 54.5295 41.1828 54.6304 41.7938 54.8025L43.6216 55.3133C48.4789 56.7306 53.215 58.8945 57.5539 62C52.9393 59.9056 48.1946 58.3341 43.3725 57.3028C40.9601 56.803 38.5359 56.4263 36.1 56.1727C33.6646 55.9534 31.2191 55.8055 28.7787 55.8307C23.8945 55.8601 19.0195 56.3831 14.1975 57.3949C11.7865 57.9025 9.38895 58.5196 7.01668 59.2771C4.6444 60.0345 2.29064 60.8972 0 61.9989Z" fill="#F4F6FA"/>
<path d="M13.2929 56.8004H10.1169V39.8149L45.9463 32.8851V56.1225H42.7689V36.8173L13.2929 42.5183V56.8004Z" fill="#F4F6FA"/>
<path d="M26.7868 38.8635H23.5514V17.9376L41.4661 22.9787V36.2437H38.2307V25.265L26.7868 22.0444V38.8635Z" fill="#F4F6FA"/>
<path d="M34.0017 20.926H30.8044V4.56321L26.7486 3.73423V18.8969H23.5514V0L34.0017 2.13494V20.926Z" fill="#F4F6FA"/>
<path d="M17.6517 40.3581H14.592V13.8581L24.0107 10.4638L25.0423 13.3615L17.6517 16.0245V40.3581Z" fill="#F4F6FA"/>
<path d="M58.8067 44.9468V26.8845H62.6654V44.9468H58.8067ZM70.4828 44.9468V26.8845H74.3415V44.9468H70.4828ZM60.6108 34.0592H72.2368V37.0195H60.6108V34.0592Z" fill="#F4F6FA"/>
<path d="M85.1338 44.9468C85.0336 44.5789 84.9584 44.1859 84.9083 43.7678C84.8749 43.3496 84.8582 42.8646 84.8582 42.3127H84.7579V36.2669C84.7579 35.7484 84.5826 35.347 84.2318 35.0627C83.8977 34.7617 83.3966 34.6111 82.7284 34.6111C82.0936 34.6111 81.5842 34.7199 81.2 34.9373C80.8325 35.1547 80.5903 35.4725 80.4734 35.8906H76.8904C77.0574 34.7366 77.6504 33.7833 78.6693 33.0307C79.6883 32.2781 81.0831 31.9018 82.8537 31.9018C84.6911 31.9018 86.0943 32.3115 87.0631 33.131C88.0319 33.9505 88.5163 35.1296 88.5163 36.6682V42.3127C88.5163 42.7308 88.5414 43.1573 88.5915 43.5922C88.6583 44.0103 88.7586 44.4618 88.8922 44.9468H85.1338ZM80.6738 45.1977C79.4043 45.1977 78.3937 44.8799 77.642 44.2444C76.8904 43.5921 76.5145 42.7308 76.5145 41.6605C76.5145 40.473 76.9572 39.5198 77.8425 38.8006C78.7445 38.0647 79.9973 37.5881 81.6009 37.3707L85.3342 36.8439V39.0264L82.2273 39.503C81.5591 39.6034 81.0663 39.7873 80.749 40.0549C80.4316 40.3225 80.2729 40.6905 80.2729 41.1587C80.2729 41.5769 80.4232 41.8946 80.7239 42.112C81.0246 42.3295 81.4255 42.4382 81.9266 42.4382C82.7117 42.4382 83.3799 42.2291 83.9311 41.811C84.4823 41.3762 84.7579 40.8744 84.7579 40.3058L85.1087 42.3127C84.7412 43.266 84.1816 43.9852 83.43 44.4702C82.6783 44.9552 81.7596 45.1977 80.6738 45.1977Z" fill="#F4F6FA"/>
<path d="M94.0559 44.9468L89.0196 32.1527H93.0536L96.9874 44.0939H94.8827L98.7915 32.1527H102.725L97.689 44.9468H94.0559Z" fill="#F4F6FA"/>
<path d="M109.8 45.1977C108.38 45.1977 107.144 44.9217 106.091 44.3698C105.039 43.8012 104.221 43.0152 103.636 42.0117C103.068 41.0082 102.784 39.8542 102.784 38.5497C102.784 37.2285 103.068 36.0745 103.636 35.0878C104.221 34.0843 105.031 33.3066 106.066 32.7547C107.102 32.1861 108.305 31.9018 109.674 31.9018C110.994 31.9018 112.138 32.1694 113.107 32.7046C114.076 33.2397 114.828 33.984 115.362 34.9373C115.897 35.8906 116.164 37.0111 116.164 38.2989C116.164 38.5665 116.156 38.8173 116.139 39.0515C116.122 39.2689 116.097 39.4779 116.064 39.6786H104.989V37.1951H113.032L112.38 37.6466C112.38 36.6097 112.13 35.8488 111.629 35.3637C111.144 34.862 110.476 34.6111 109.624 34.6111C108.639 34.6111 107.87 34.9456 107.319 35.6146C106.785 36.2836 106.517 37.2871 106.517 38.625C106.517 39.9295 106.785 40.8995 107.319 41.535C107.87 42.1706 108.689 42.4883 109.775 42.4883C110.376 42.4883 110.894 42.388 111.328 42.1873C111.762 41.9866 112.088 41.6605 112.305 41.2089H115.838C115.421 42.4465 114.702 43.4249 113.683 44.1441C112.681 44.8465 111.387 45.1977 109.8 45.1977Z" fill="#F4F6FA"/>
<path d="M118.174 44.9468V32.1527H121.857V35.1631H121.932V44.9468H118.174ZM127.069 44.9468V37.0195C127.069 36.317 126.885 35.7902 126.518 35.439C126.167 35.0878 125.649 34.9122 124.964 34.9122C124.379 34.9122 123.853 35.046 123.386 35.3136C122.935 35.5812 122.575 35.9491 122.308 36.4174C122.058 36.8857 121.932 37.4376 121.932 38.0731L121.607 34.9874C122.024 34.0509 122.634 33.3066 123.436 32.7547C124.254 32.1861 125.256 31.9018 126.442 31.9018C127.862 31.9018 128.948 32.3032 129.7 33.1059C130.451 33.892 130.827 34.954 130.827 36.292V44.9468H127.069Z" fill="#F4F6FA"/>
<path d="M136.275 44.9468V42.1873H140.936C141.771 42.1873 142.398 41.9615 142.815 41.51C143.249 41.0417 143.467 40.3978 143.467 39.5783C143.467 38.7421 143.233 38.0815 142.765 37.5965C142.314 37.1114 141.663 36.8689 140.811 36.8689H136.275V34.1094H140.61C141.395 34.1094 141.988 33.9254 142.389 33.5575C142.807 33.1728 143.016 32.6126 143.016 31.8767C143.016 31.1408 142.815 30.5889 142.414 30.221C142.03 29.8363 141.454 29.644 140.685 29.644H136.275V26.8845H141.512C143.116 26.8845 144.41 27.2942 145.396 28.1137C146.381 28.9332 146.874 30.0454 146.874 31.4502C146.874 32.3366 146.665 33.0976 146.248 33.7331C145.83 34.3686 145.271 34.8537 144.569 35.1881C143.867 35.5226 143.082 35.6899 142.214 35.6899L142.339 35.1631C143.274 35.1631 144.118 35.3637 144.87 35.7651C145.638 36.1665 146.248 36.7351 146.699 37.471C147.15 38.1902 147.375 39.0431 147.375 40.0299C147.375 41.0166 147.141 41.8863 146.674 42.6389C146.223 43.3747 145.58 43.9434 144.744 44.3447C143.926 44.7461 142.957 44.9468 141.838 44.9468H136.275ZM133.118 44.9468V26.8845H136.977V44.9468H133.118Z" fill="#F4F6FA"/>
<path d="M153.579 45.1977C152.677 45.1977 151.9 45.0054 151.249 44.6207C150.614 44.2193 150.13 43.6925 149.796 43.0402C149.462 42.3713 149.295 41.627 149.295 40.8075V32.1527H153.053V40.08C153.053 40.7824 153.228 41.3093 153.579 41.6605C153.93 42.0117 154.423 42.1873 155.058 42.1873C155.625 42.1873 156.127 42.0535 156.561 41.7859C156.995 41.5183 157.338 41.1504 157.588 40.6821C157.855 40.1971 157.989 39.6452 157.989 39.0264L158.315 42.112C157.897 43.0319 157.288 43.7761 156.486 44.3447C155.684 44.9134 154.715 45.1977 153.579 45.1977ZM158.064 44.9468V41.9364H157.989V32.1527H161.748V44.9468H158.064Z" fill="#F4F6FA"/>
<path d="M164.2 44.9468V32.1527H167.958V44.9468H164.2ZM164.074 30.4468V26.3827H168.083V30.4468H164.074Z" fill="#F4F6FA"/>
<path d="M170.953 44.9468V26.8845H174.711V44.9468H170.953Z" fill="#F4F6FA"/>
<path d="M183.77 45.2228C182.133 45.2228 180.914 44.8298 180.112 44.0437C179.327 43.2409 178.934 42.0284 178.934 40.4062V29.2928L182.693 27.8879V40.5316C182.693 41.1002 182.851 41.5267 183.169 41.811C183.486 42.0953 183.979 42.2375 184.647 42.2375C184.898 42.2375 185.131 42.2124 185.349 42.1622C185.566 42.112 185.783 42.0535 186 41.9866V44.8465C185.783 44.9636 185.474 45.0555 185.073 45.1224C184.689 45.1893 184.254 45.2228 183.77 45.2228ZM176.554 35.0125V32.1527H186V35.0125H176.554Z" fill="#F4F6FA"/>
</g>
</svg>
