<svg width="23" height="24" viewBox="0 0 23 24" fill="none" xmlns="http://www.w3.org/2000/svg">
<path id="Vector" d="M22.6167 0.5H19.55V1.26667H21.6913L12.8313 10.1267C12.5491 9.92579 12.225 9.79168 11.8833 9.7345V1.80872L13.529 3.45437L14.071 2.91232L11.771 0.612317C11.7354 0.576712 11.6932 0.548468 11.6467 0.529198C11.6002 0.509928 11.5503 0.50001 11.5 0.50001C11.4496 0.50001 11.3998 0.509928 11.3533 0.529198C11.3068 0.548468 11.2645 0.576712 11.229 0.612317L8.92896 2.91232L9.47102 3.45435L11.1167 1.80872V9.7345C10.775 9.79169 10.4509 9.9258 10.1687 10.1267L1.30872 1.26667H3.45V0.5H0.383333C0.332985 0.499971 0.283125 0.509867 0.236604 0.529121C0.190083 0.548375 0.147813 0.57661 0.112212 0.612212C0.0766102 0.647813 0.0483752 0.690083 0.029121 0.736604C0.00986692 0.783125 -2.86607e-05 0.832985 6.23495e-08 0.883333V3.95H0.766667V1.80872L9.62669 10.6687C9.42579 10.9509 9.29168 11.275 9.2345 11.6167H1.30872L2.95437 9.97102L2.41232 9.42898L0.112317 11.729C0.0767124 11.7646 0.0484684 11.8068 0.0291984 11.8533C0.00992837 11.8998 1.01157e-05 11.9497 1.01157e-05 12C1.01157e-05 12.0504 0.00992837 12.1002 0.0291984 12.1467C0.0484684 12.1932 0.0767124 12.2355 0.112317 12.271L2.41232 14.571L2.95435 14.029L1.30872 12.3833H9.2345C9.29169 12.725 9.4258 13.0491 9.6267 13.3313L0.766667 22.1913V20.05H6.23495e-08V23.1167C-2.86607e-05 23.167 0.00986692 23.2169 0.029121 23.2634C0.0483752 23.3099 0.0766102 23.3522 0.112212 23.3878C0.147813 23.4234 0.190083 23.4516 0.236604 23.4709C0.283125 23.4901 0.332985 23.5 0.383333 23.5H3.45V22.7333H1.30872L10.1687 13.8733C10.4509 14.0742 10.775 14.2083 11.1167 14.2655V22.1913L9.47102 20.5456L8.92898 21.0877L11.229 23.3877C11.2646 23.4233 11.3068 23.4515 11.3533 23.4708C11.3998 23.4901 11.4497 23.5 11.5 23.5C11.5504 23.5 11.6002 23.4901 11.6467 23.4708C11.6932 23.4515 11.7355 23.4233 11.771 23.3877L14.071 21.0877L13.529 20.5456L11.8833 22.1913V14.2655C12.225 14.2083 12.5491 14.0742 12.8313 13.8733L21.6913 22.7333H19.55V23.5H22.6167C22.667 23.5 22.7169 23.4901 22.7634 23.4709C22.8099 23.4516 22.8522 23.4234 22.8878 23.3878C22.9234 23.3522 22.9516 23.3099 22.9709 23.2634C22.9901 23.2169 23 23.167 23 23.1167V20.05H22.2333V22.1913L13.3733 13.3313C13.5742 13.0491 13.7083 12.725 13.7655 12.3833H21.6913L20.0456 14.029L20.5877 14.571L22.8877 12.271C22.9233 12.2354 22.9515 12.1932 22.9708 12.1467C22.9901 12.1002 23 12.0503 23 12C23 11.9496 22.9901 11.8998 22.9708 11.8533C22.9515 11.8068 22.9233 11.7645 22.8877 11.729L20.5877 9.42896L20.0456 9.97102L21.6913 11.6167H13.7655C13.7083 11.275 13.5742 10.9509 13.3733 10.6687L22.2333 1.80872V3.95H23V0.883333C23 0.832985 22.9901 0.783125 22.9709 0.736604C22.9516 0.690083 22.9234 0.647813 22.8878 0.612212C22.8522 0.57661 22.8099 0.548375 22.7634 0.529121C22.7169 0.509867 22.667 0.499971 22.6167 0.5Z" fill="#1A1A1A"/>
</svg>
