<svg width="31" height="31" viewBox="0 0 31 31" fill="none" xmlns="http://www.w3.org/2000/svg">
<g id="Vector">
<path d="M10.4559 19.6218C10.3847 19.942 10.4756 20.2463 10.7997 20.353L16.3088 21.7836C18.9448 20.677 21.3002 18.9421 23.8374 17.6142C25.1811 17.1716 26.1336 18.7722 24.9914 19.6693L16.2061 24.7911C15.8109 24.9571 15.3406 24.9136 14.9216 24.8583C13.2104 24.637 10.8708 23.4474 9.20701 23.3525C8.79204 23.3288 8.40079 23.5462 7.99373 23.5422L5.55533 19.2859C6.61052 18.8117 8.09648 17.5115 9.15167 17.223C9.45993 17.14 9.65359 17.1439 9.96185 17.1914C11.8904 17.4957 14.072 18.4639 16.0164 18.8631C17.036 19.365 16.7001 20.8193 15.5461 20.764L10.9894 19.5072L10.4559 19.6179V19.6218Z" stroke="#171937" stroke-miterlimit="10"/>
<path d="M29.3508 18.3495C29.5088 18.5668 29.6551 20.697 29.6393 21.0961C29.4693 25.2576 26.608 27.9212 22.6718 28.6879L22.6837 29.8261L22.3359 30L16.9414 27.5893L17.052 26.9846L21.3558 23.7479L21.5573 23.74C21.9881 23.8428 21.917 24.7557 22.1106 24.7675C24.7348 24.2024 27.5091 22.9615 28.3351 20.1793C28.4774 19.7011 28.509 18.7842 28.6671 18.4483C28.7935 18.1795 29.2006 18.144 29.3468 18.3455L29.3508 18.3495Z" stroke="#171937" stroke-miterlimit="10"/>
<path d="M3.26371 14.2946C3.05425 14.0851 2.46145 12.8126 2.32708 12.4648C0.73441 8.38631 2.23223 4.61609 5.91948 2.46224C6.00248 1.8813 5.12908 1.49795 5.80488 1L11.5986 1.25688C11.8159 1.3952 11.9226 1.59675 11.8041 1.83783L8.96651 6.48144C8.23934 6.97149 8.26699 6.08229 7.9943 5.88469C7.74928 5.70685 6.6269 6.64347 6.37792 6.85688C4.76154 8.24404 3.4139 10.2082 3.62731 12.449C3.66683 12.8758 4.05807 13.8322 3.97903 14.1088C3.88418 14.4408 3.49689 14.5356 3.25581 14.2946H3.26371Z" stroke="#171937" stroke-miterlimit="10"/>
<path d="M19.4316 2.6437C22.3284 2.29592 24.5297 3.22069 26.4109 5.37849C26.6401 5.63932 27.3831 6.86445 27.6162 6.84469C29.4895 5.51681 28.7742 8.05795 28.7307 9.10919C28.6872 10.1604 28.7702 11.2828 28.6003 12.3261C28.5015 12.9387 28.1181 12.7411 27.7427 12.5435C26.2963 11.7728 24.8933 10.686 23.4429 9.89169C22.9094 9.11709 24.1582 9.17242 23.9013 8.5322C23.7946 8.26741 23.1583 7.43354 22.937 7.17271C21.4906 5.46148 19.5304 4.29959 17.2184 4.55252C16.7323 4.6039 15.8036 5.11371 15.523 4.67108C15.2424 4.22846 16.3055 3.72655 16.6177 3.56847C17.333 3.20488 18.6451 2.73855 19.4276 2.6437H19.4316Z" stroke="#171937" stroke-miterlimit="10"/>
<path d="M17.4 20.3807C17.7004 18.5035 16.2974 17.8593 14.6929 17.6735C15.8113 13.5279 21.6959 12.9193 23.6996 16.6974L17.4 20.3807Z" stroke="#171937" stroke-miterlimit="10"/>
<path d="M4.05344 18.1401L1.35938 19.6624L5.61345 27.1906L8.30751 25.6683L4.05344 18.1401Z" stroke="#171937" stroke-miterlimit="10"/>
<path d="M10.8714 12.9466C12.3294 12.9466 13.5114 11.7646 13.5114 10.3066C13.5114 8.84865 12.3294 7.6667 10.8714 7.6667C9.41339 7.6667 8.23144 8.84865 8.23144 10.3066C8.23144 11.7646 9.41339 12.9466 10.8714 12.9466Z" stroke="#171937" stroke-miterlimit="10"/>
<path d="M19.4076 13.3379C20.8657 13.3379 22.0476 12.156 22.0476 10.698C22.0476 9.23999 20.8657 8.05805 19.4076 8.05805C17.9496 8.05805 16.7677 9.23999 16.7677 10.698C16.7677 12.156 17.9496 13.3379 19.4076 13.3379Z" stroke="#171937" stroke-miterlimit="10"/>
<path d="M5.93895 18.065C6.44086 13.8719 12.0093 12.2437 14.6809 15.5792L13.7363 17.3853C12.2029 17.1639 10.0728 15.9112 8.59077 16.5316C8.28646 16.6581 6.03775 18.1836 5.93895 18.065Z" stroke="#171937" stroke-miterlimit="10"/>
</g>
</svg>
