<svg width="29" height="31" viewBox="0 0 29 31" fill="none" xmlns="http://www.w3.org/2000/svg">
<g id="Vector">
<path d="M10.8132 22.8802C10.7696 22.8439 10.6278 22.0045 10.5479 21.7828C10.0065 20.293 8.82558 19.6245 8.02619 18.3454C4.6869 12.9967 8.84011 6.07828 15.1408 6.56882C21.049 7.03029 24.0867 13.9088 20.7002 18.7342C20.0062 19.7226 19.0506 20.2603 18.6036 21.4304C18.4292 21.8918 18.3565 22.3715 18.193 22.833L10.8132 22.8766V22.8802ZM15.6059 10.4423C15.5405 10.3623 15.6713 9.46483 15.2825 9.1487C15.0499 8.95612 13.8073 8.95612 13.5747 9.1487C13.1568 9.49026 13.6147 10.8383 12.5827 10.5658C12.1758 10.4568 11.9686 9.83182 11.3219 10.1334C11.1656 10.2061 10.2936 11.1363 10.279 11.3034C10.2318 11.794 11.3037 12.2555 10.7405 12.9204C10.4861 13.2184 9.46146 12.8296 9.27615 13.658C9.20711 13.9633 9.19257 14.8753 9.40696 15.0897C9.71945 15.4022 10.8095 14.9843 10.9076 15.8527C10.9549 16.2924 10.0283 16.6957 10.3481 17.3207C10.4498 17.517 11.3219 18.3054 11.5435 18.3418C12.0086 18.4217 12.4228 17.546 12.9679 17.804C13.582 18.0947 13.2622 19.0939 13.7382 19.2466C13.9599 19.3156 15.1335 19.3047 15.337 19.203C15.7222 19.014 15.5042 18.4108 15.7367 18.0511C16.2599 17.2335 16.7868 18.2618 17.241 18.3418C17.6552 18.4145 18.6363 17.477 18.6763 17.11C18.7272 16.6594 17.6988 16.1144 18.1712 15.4603C18.342 15.2241 19.4321 15.4385 19.5847 14.9044C19.6537 14.6609 19.6537 13.6508 19.5447 13.4364C19.2649 12.8877 18.3674 13.1457 18.2003 13.0294C18.1749 13.0112 17.9459 12.4771 17.9423 12.4408C17.9096 12.1319 18.7453 11.7831 18.5164 11.1C18.4292 10.8383 17.7316 10.1152 17.4663 10.068C16.7723 9.9481 16.6996 10.504 16.2781 10.5658C16.1727 10.5803 15.6277 10.4713 15.6059 10.4459V10.4423Z" stroke="#171937" stroke-miterlimit="10"/>
<path d="M18.1856 24.3149C18.2619 24.3912 18.3091 26.3388 17.8367 26.3642C15.7874 26.2843 13.5345 26.5532 11.507 26.3969C10.3442 26.3061 10.9365 25.1797 10.8021 24.3185H18.1856V24.3149Z" stroke="#171937" stroke-miterlimit="10"/>
<path d="M16.7615 27.9417C16.8232 27.9998 16.518 28.7193 16.4453 28.8537C15.3589 30.8086 12.4956 30.1037 12.2304 27.9417C12.8117 28.0616 16.598 27.7854 16.7651 27.9417H16.7615Z" stroke="#171937" stroke-miterlimit="10"/>
<path d="M14.2651 1.02361C14.6793 0.936405 15.1408 1.08902 15.2789 1.51052C15.3915 1.85935 15.3951 3.7561 15.3079 4.1449C15.1408 4.89343 13.9526 5.03877 13.7091 4.24301C13.5965 3.87238 13.5892 2.01196 13.6764 1.60863C13.7418 1.3143 13.9635 1.08538 14.2614 1.01998L14.2651 1.02361Z" stroke="#171937" stroke-miterlimit="10"/>
<path d="M20.4823 2.70632C21.1763 2.56098 21.6632 3.02972 21.5034 3.72737C21.4162 4.10527 20.228 6.06743 19.9118 6.16191C19.2469 6.36176 18.7164 5.77311 18.8617 5.11179C18.9126 4.87197 19.8937 3.15689 20.0754 2.94978C20.1771 2.82987 20.337 2.73903 20.4896 2.70996L20.4823 2.70632Z" stroke="#171937" stroke-miterlimit="10"/>
<path d="M3.51329 7.24043C3.79307 7.18229 3.91298 7.22953 4.16007 7.31674C4.57793 7.46208 6.34386 8.54854 6.402 8.97004C6.49284 9.62409 5.95144 10.0347 5.32645 9.91115C5.10117 9.86755 3.48422 8.89737 3.28073 8.71205C2.75749 8.22878 2.76113 7.39668 3.50965 7.24043H3.51329Z" stroke="#171937" stroke-miterlimit="10"/>
<path d="M6.10081 20.1331C5.30868 20.3984 3.94608 21.8191 3.16485 21.1397C2.68521 20.7218 2.92867 20.1331 3.3538 19.7807C3.53911 19.6281 5.27961 18.6325 5.43949 18.6143C6.35516 18.5162 6.69672 19.5045 6.10444 20.1295L6.10081 20.1331Z" stroke="#171937" stroke-miterlimit="10"/>
<path d="M23.2005 18.6397C23.4112 18.5961 23.5566 18.6034 23.7601 18.6724C23.9418 18.7342 25.5551 19.7043 25.7004 19.8388C26.4526 20.5365 25.9293 21.5648 24.9119 21.2741C24.7339 21.2232 22.8844 20.1477 22.7826 20.035C22.3829 19.5844 22.5864 18.7669 23.1969 18.6361L23.2005 18.6397Z" stroke="#171937" stroke-miterlimit="10"/>
<path d="M9.86112 6.01277C9.50139 6.32526 8.89095 6.20535 8.61843 5.83835C8.46945 5.6385 7.49201 3.91253 7.4593 3.75265C7.35756 3.2294 7.60828 2.7425 8.16059 2.68073C8.7129 2.61895 8.85098 3.00412 9.1235 3.38928C9.5668 4.01064 10.5842 5.38415 9.86112 6.00913V6.01277Z" stroke="#171937" stroke-miterlimit="10"/>
<path d="M1.95822 13.4618C2.35428 13.3745 4.09478 13.3782 4.46541 13.4945C5.2648 13.7415 5.12672 14.9915 4.39273 15.1187C4.06208 15.1768 2.1072 15.1768 1.82741 15.0969C1.16609 14.9043 1.09342 13.6543 1.95822 13.4654V13.4618Z" stroke="#171937" stroke-miterlimit="10"/>
<path d="M25.0132 7.23697C25.7218 7.09163 26.3795 7.89466 25.8271 8.58142C25.6491 8.80307 24.043 9.83865 23.7887 9.90769C22.8948 10.162 22.2408 9.38082 22.7858 8.64319C22.9239 8.45787 24.8097 7.27694 25.0132 7.23334V7.23697Z" stroke="#171937" stroke-miterlimit="10"/>
<path d="M24.625 13.4618C25.021 13.3745 26.7615 13.3782 27.1321 13.4945C27.9315 13.7415 27.8625 14.977 26.925 15.1151C26.4963 15.1768 24.9084 15.1805 24.5269 15.0642C23.7602 14.828 23.8038 13.6471 24.625 13.4654V13.4618Z" stroke="#171937" stroke-miterlimit="10"/>
<path d="M14.4907 16.0959C15.5443 16.0959 16.3984 15.2418 16.3984 14.1882C16.3984 13.1347 15.5443 12.2806 14.4907 12.2806C13.4372 12.2806 12.5831 13.1347 12.5831 14.1882C12.5831 15.2418 13.4372 16.0959 14.4907 16.0959Z" stroke="#171937" stroke-miterlimit="10"/>
</g>
</svg>
