<svg width="31" height="31" viewBox="0 0 31 31" fill="none" xmlns="http://www.w3.org/2000/svg">
<g id="Vector">
<path d="M29.6991 25.8373C29.3303 26.1943 26.5017 26.1316 25.8152 26.3316C25.3875 27.0496 25.0776 31.0433 23.7516 29.7408L19.8638 24.8408C19.4322 24.7702 16.7841 26.7632 15.5051 26.7632C14.2262 26.7632 11.5781 24.7702 11.1465 24.8408L7.25867 29.7408C5.93265 31.0433 5.62272 27.0496 5.1951 26.3316C4.0927 26.1355 2.88437 26.2022 1.79373 26.006C1.23272 25.904 0.99733 25.649 1.28764 25.0958L6.35635 18.76C6.4152 18.4697 5.97973 17.791 5.86988 17.4104C4.68117 13.299 5.70903 8.19501 5.35202 3.90311L5.49326 3.31464C5.6698 3.09495 6.49366 2.97333 6.81928 2.89095C8.61216 2.42409 13.9555 1 15.5051 1C17.0548 1 22.3981 2.42409 24.191 2.89095C24.5166 2.97333 25.3405 3.09495 25.517 3.31464L25.6582 3.90311C25.3836 7.56339 25.9996 11.6944 25.6504 15.292C25.5366 16.461 24.956 17.638 24.6539 18.76L29.7226 25.0958C29.8913 25.2999 29.8913 25.6608 29.703 25.8373H29.6991ZM21.2251 11.2394C21.4722 10.9334 21.4958 10.5332 21.1192 10.337C20.3855 9.96042 18.114 10.0977 17.5373 9.6858C17.0469 9.19541 16.1132 6.31191 15.5051 6.31191C14.4733 7.04946 14.2536 8.68541 13.4729 9.6858C12.8962 10.0977 8.63962 9.87019 9.78518 11.2354L12.194 13.5736C12.4372 14.2876 11.0445 17.6811 12.143 17.7008C12.806 17.7125 14.6342 16.0844 15.5051 16.0844C16.3251 16.0844 18.5691 17.9558 19.083 17.6341C19.7774 17.1947 18.6044 14.3857 18.8163 13.5697L21.2251 11.2315V11.2394ZM6.8232 28.2108C7.07821 28.2618 7.18413 28.0774 7.33714 27.9205C7.70199 27.5439 10.354 24.3112 10.3109 24.0719C9.00055 22.8204 7.90599 21.4003 6.89775 19.8938L2.88437 24.9978L5.92088 25.3195L6.82713 28.2108H6.8232ZM28.1298 24.9978L24.1164 19.8938C23.1082 21.3963 22.0136 22.8204 20.7033 24.0719C20.6601 24.3308 23.728 28.1088 23.9752 28.2108C24.2537 28.3246 24.1831 28.0382 24.2302 27.8891C24.5048 27.0299 24.6814 26.1316 25.0972 25.3195L28.1337 24.9978H28.1298Z" stroke="#171937" stroke-width="1.5" stroke-miterlimit="10"/>
<path d="M2.04923 15.5545C2.28069 15.2838 4.1285 14.2991 4.44235 14.4482C5.81937 15.0915 2.57885 16.5941 2.25323 16.5156C1.82953 16.4097 1.76676 15.884 2.04923 15.5545Z" stroke="#171937" stroke-width="1.5" stroke-miterlimit="10"/>
<path d="M28.958 15.5545C29.2365 15.884 29.1777 16.4097 28.754 16.5156C28.4283 16.598 25.1878 15.0955 26.5648 14.4482C26.8787 14.2991 28.7265 15.2838 28.958 15.5545Z" stroke="#171937" stroke-width="1.5" stroke-miterlimit="10"/>
<path d="M28.3808 7.06874C28.8398 6.97458 29.2988 7.3002 29.083 7.7749C28.8869 8.21037 25.8268 9.9797 26.2544 8.46537C26.3329 8.18291 28.0983 7.12759 28.3808 7.06874Z" stroke="#171937" stroke-width="1.5" stroke-miterlimit="10"/>
<path d="M4.61099 9.07346C4.21867 9.32454 2.08841 8.12798 1.92756 7.7749C1.71178 7.3002 2.16687 6.97458 2.6298 7.06874C2.72003 7.08836 4.09314 7.8416 4.24614 7.94752C4.72869 8.28491 4.92484 8.48499 4.61491 9.06954L4.61099 9.07346Z" stroke="#171937" stroke-width="1.5" stroke-miterlimit="10"/>
<path d="M1.34665 11.2829H3.82609C4.24979 11.2829 4.24979 12.3029 3.82609 12.3029H1.34665C1.00534 12.3029 0.824876 11.4594 1.34665 11.2829Z" stroke="#171937" stroke-width="1.5" stroke-miterlimit="10"/>
<path d="M27.1804 11.2829H29.6599C30.0836 11.2829 30.0836 12.3029 29.6599 12.3029H27.1804C26.8391 12.3029 26.6587 11.4594 27.1804 11.2829Z" stroke="#171937" stroke-width="1.5" stroke-miterlimit="10"/>
<path d="M16.7805 10.6589L19.664 11.1375L17.6436 13.2835L18.0555 16.0963L15.5054 14.8488L12.9515 16.0963L13.3673 13.2835L11.3469 11.1375L14.1676 10.7099L15.5054 8.21871L16.7805 10.6589Z" stroke="#171937" stroke-width="1.5" stroke-miterlimit="10"/>
</g>
</svg>
