<svg width="25" height="31" viewBox="0 0 25 31" fill="none" xmlns="http://www.w3.org/2000/svg">
<g id="Vector">
<path d="M7.63424 23.0385C7.6689 23.0771 7.65734 24.0436 7.61883 24.1014C7.45709 24.3363 2.74362 24.8754 2.74747 26.358C2.74747 27.4555 6.00147 28.1872 6.86406 28.3682C10.4531 29.1153 14.4156 29.123 18.0085 28.3951C18.7787 28.2373 22.5294 27.3978 22.2329 26.2694C21.8247 24.7175 17.5695 24.3748 17.3808 24.1014C17.3423 24.0475 17.3269 23.0771 17.3654 23.0385C17.4963 22.8999 20.6387 23.8665 21.0661 24.0436C23.6077 25.1026 24.2315 27.1821 21.482 28.4683C17.0766 30.5362 8.20802 30.4554 3.74485 28.5569C1.04924 27.4093 1.05309 25.3375 3.72945 24.1399C4.18385 23.9358 7.50331 22.8922 7.64194 23.0385H7.63424Z" fill="#171937"/>
<path d="M9.60599 8.88242C10.9268 8.72068 14.978 8.68217 16.1602 9.03646C17.1576 9.33297 18.1472 10.2687 18.3706 11.3008C18.5708 12.2288 18.5747 16.7228 18.4053 17.6779C18.2782 18.3864 17.7313 18.991 17.1114 19.3145C16.7956 19.4801 16.0986 19.5725 15.9946 19.896L15.9407 25.5529C15.5132 26.5195 14.6699 27.0509 13.5878 26.8892C13.1912 26.8314 12.8215 26.4386 12.5019 26.4386C12.1822 26.4386 11.8665 26.7929 11.543 26.8622C10.4994 27.0933 9.20935 26.5657 9.03606 25.422C8.78576 23.77 9.22861 21.6096 9.00911 19.896C8.88973 19.5263 8.26974 19.5494 7.96552 19.3992C7.39174 19.1142 6.7833 18.4403 6.63311 17.8011C6.39821 16.8037 6.46368 12.999 6.55995 11.8438C6.70243 10.1494 7.99247 9.08267 9.61755 8.88242H9.60599Z" stroke="#171937" stroke-width="2" stroke-miterlimit="10"/>
<path d="M7.63424 23.0385C7.6689 23.0771 7.65734 24.0436 7.61883 24.1014C7.45709 24.3363 2.74362 24.8754 2.74747 26.358C2.74747 27.4555 6.00147 28.1872 6.86406 28.3682C10.4531 29.1153 14.4156 29.123 18.0085 28.3951C18.7787 28.2373 22.5294 27.3978 22.2329 26.2694C21.8247 24.7175 17.5695 24.3748 17.3808 24.1014C17.3423 24.0475 17.3269 23.0771 17.3654 23.0385C17.4963 22.8999 20.6387 23.8665 21.0661 24.0436C23.6077 25.1026 24.2315 27.1821 21.482 28.4683C17.0766 30.5362 8.20802 30.4554 3.74485 28.5569C1.04924 27.4093 1.05309 25.3375 3.72945 24.1399C4.18385 23.9358 7.50331 22.8922 7.64194 23.0385H7.63424Z" stroke="#171937" stroke-width="2" stroke-miterlimit="10"/>
<path d="M12.4901 7.4849C14.2809 7.4849 15.7325 6.03321 15.7325 4.24245C15.7325 2.45169 14.2809 1 12.4901 1C10.6994 1 9.24766 2.45169 9.24766 4.24245C9.24766 6.03321 10.6994 7.4849 12.4901 7.4849Z" stroke="#171937" stroke-width="2" stroke-miterlimit="10"/>
</g>
</svg>
