<svg width="31" height="31" viewBox="0 0 31 31" fill="none" xmlns="http://www.w3.org/2000/svg">
<g id="Vector">
<path d="M17.1011 26.7986C18.5376 26.5563 19.9482 24.739 19.9482 23.2894C19.9482 22.913 19.4896 21.3596 19.5675 21.2514L27.2263 16.9287C29.3033 16.3403 30.5754 18.7591 29.2859 20.3125C26.4258 22.7139 23.8166 26.3746 20.9391 28.6463C20.329 29.1309 19.0655 29.7583 18.2953 29.8405C15.8246 30.1045 10.8658 28.3217 8.20038 27.7549C7.97105 27.7073 7.73739 27.7203 7.50373 27.7203V20.6327C7.60325 19.8062 8.52924 19.3259 9.29079 19.248C10.0523 19.1701 11.7399 19.1615 12.4582 19.261C12.774 19.3043 13.4317 19.5639 13.6654 19.7759C13.8991 19.9879 14.0981 20.6846 14.2106 20.7105C14.7818 20.8447 15.8765 20.624 16.5602 20.7149C18.6415 20.9918 19.3338 23.7741 17.7631 25.0722C17.577 25.2236 16.7549 25.6001 16.5688 25.6001H13.3928C12.9731 25.6001 12.9731 26.79 13.3928 26.79C14.4226 26.79 16.1837 26.9458 17.1011 26.79V26.7986Z" stroke="#171937" stroke-width="2" stroke-miterlimit="10"/>
<path d="M3.37144 1.1612C5.47005 0.957835 9.16965 0.949181 11.2726 1.12226C12.2505 1.20015 13.4101 1.50737 13.5832 2.64969C13.6481 3.08239 13.475 4.00405 13.6524 4.29828C13.7693 4.48867 14.3231 4.57088 14.5611 4.71367C16.2746 5.73917 16.6121 8.01518 15.3054 9.52098C14.8424 10.0532 13.7347 10.3864 13.6481 10.5119C13.3063 10.9922 14.0808 12.5326 12.787 13.359C12.1856 13.7441 10.7793 13.7787 10.074 13.6965C9.08744 13.584 9.45091 13.0518 9.1783 12.3422C8.5855 10.7931 6.27055 10.7715 5.66909 12.3292C5.50034 12.7706 5.56092 13.5061 5.02004 13.6662C4.72147 13.7528 3.68299 13.7268 3.31952 13.6965C1.81804 13.5711 1.24255 12.8398 1.13437 11.3816C0.978601 9.27001 0.935331 5.25455 1.15601 3.18624C1.31178 1.74102 1.99978 1.28669 3.36279 1.15688L3.37144 1.1612ZM4.98975 4.96031C5.06331 4.88675 6.74652 4.96031 7.04076 4.96031C7.30038 4.96031 7.70712 3.92616 6.98018 3.69683C6.50421 3.54538 4.31041 3.55836 3.92963 3.83962C3.53154 4.13818 3.60943 5.68725 3.67433 6.21082C3.77818 7.05458 4.77772 6.94208 4.95946 6.32332C5.04167 6.03341 4.9335 5.01224 4.98542 4.96031H4.98975Z" stroke="#171937" stroke-width="2" stroke-miterlimit="10"/>
<path d="M26.5769 13.7092C26.5337 13.7482 26.326 14.527 26.1442 14.7996C24.8504 16.7641 22.0725 16.5348 20.8956 14.5314C20.7528 14.2891 20.623 13.7395 20.5927 13.7092C20.3677 13.5145 18.6152 14.0987 17.7671 12.8914C17.6243 12.6881 17.4729 12.4068 17.4339 12.1645C17.3777 11.788 17.3604 9.98801 17.4512 9.68079C17.5767 9.25675 18.1868 9.3303 18.559 9.20049C20.3157 8.58173 20.3157 6.22784 18.559 5.60908C18.1868 5.47927 17.5767 5.55283 17.4512 5.12878C17.3604 4.82157 17.3777 3.02153 17.4339 2.64508C17.5335 1.99603 18.1003 1.45516 18.7191 1.28208C20.1253 0.883994 25.6034 0.996496 27.2952 1.109C28.9871 1.2215 29.7313 1.64555 29.8741 3.42827C30.0472 5.56148 30.0342 9.23944 29.8741 11.3813C29.7789 12.6534 29.29 13.5232 27.9356 13.6789C27.6587 13.7092 26.6418 13.6443 26.5726 13.7049L26.5769 13.7092ZM23.985 4.96003C24.3485 5.05523 25.5514 4.96003 26.0361 4.96003C26.1442 4.96003 25.6985 6.72978 26.6375 6.81632C27.0832 6.85526 27.2995 6.6216 27.3515 6.21054C27.4164 5.68264 27.4943 4.13357 27.0962 3.83934C26.7154 3.55808 24.5216 3.54943 24.0456 3.69655C23.4139 3.89559 23.6043 4.85618 23.985 4.96003Z" stroke="#171937" stroke-width="2" stroke-miterlimit="10"/>
<path d="M2.441 19.2911C3.47948 19.1354 5.89396 18.958 6.14925 20.2777C5.99348 22.9604 6.4608 26.0932 6.18387 28.724C6.04108 30.0697 4.36652 30.0308 3.32804 29.9832C2.39773 29.9399 1.38953 29.8793 1.2078 28.7932C1.31165 26.2403 0.861637 23.1508 1.16453 20.6585C1.26405 19.8234 1.60588 19.4166 2.441 19.2911Z" stroke="#171937" stroke-width="2" stroke-miterlimit="10"/>
</g>
</svg>
