<svg width="15" height="15" viewBox="0 0 15 15" fill="none" xmlns="http://www.w3.org/2000/svg">
<path id="Vector" d="M0.0351562 15L1.08953 11.1481C0.438905 10.0206 0.0970311 8.74248 0.0976561 7.43186C0.0995311 3.33437 3.4339 0 7.53077 0C9.51889 0.000624999 11.3851 0.774998 12.7889 2.18C14.192 3.58499 14.9645 5.45249 14.9639 7.43873C14.962 11.5368 11.6276 14.8712 7.53077 14.8712C6.28702 14.8706 5.0614 14.5587 3.97577 13.9662L0.0351562 15ZM4.15827 12.6206C5.20577 13.2425 6.20577 13.615 7.52826 13.6156C10.9333 13.6156 13.707 10.8444 13.7089 7.43748C13.7101 4.02374 10.9495 1.25625 7.53326 1.255C4.12577 1.255 1.3539 4.02624 1.35265 7.43248C1.35203 8.82311 1.75953 9.86435 2.4439 10.9537L1.81953 13.2337L4.15827 12.6206ZM11.2751 9.2056C11.2289 9.12811 11.1051 9.08185 10.9189 8.98873C10.7333 8.89561 9.82013 8.44623 9.64951 8.38436C9.47951 8.32248 9.35576 8.29123 9.23139 8.47748C9.10764 8.66311 8.75139 9.08185 8.64326 9.2056C8.53514 9.32935 8.42639 9.34498 8.24076 9.25185C8.05514 9.15873 7.45639 8.96311 6.74702 8.32998C6.19514 7.83748 5.82202 7.22936 5.71389 7.04311C5.60577 6.85748 5.70264 6.75686 5.79514 6.66436C5.87889 6.58124 5.98077 6.44749 6.07389 6.33874C6.16827 6.23124 6.19889 6.15374 6.26139 6.02936C6.32327 5.90561 6.29264 5.79686 6.24577 5.70374C6.19889 5.61124 5.82764 4.69686 5.67327 4.32499C5.52202 3.96312 5.36889 4.01187 5.25515 4.00624L4.8989 3.99999C4.77515 3.99999 4.5739 4.04624 4.4039 4.23249C4.2339 4.41874 3.7539 4.86749 3.7539 5.78186C3.7539 6.69624 4.41952 7.57936 4.51202 7.70311C4.60515 7.82686 5.82139 9.7031 7.68451 10.5075C8.12764 10.6987 8.47389 10.8131 8.74326 10.8987C9.18826 11.04 9.59326 11.02 9.91326 10.9725C10.2701 10.9194 11.012 10.5231 11.167 10.0894C11.322 9.65498 11.322 9.2831 11.2751 9.2056Z" fill="#F4F6FA"/>
</svg>
