<svg width="15" height="11" viewBox="0 0 15 11" fill="none" xmlns="http://www.w3.org/2000/svg">
<path id="Vector" d="M14.8506 2.50098C14.8506 2.50098 14.7041 1.4668 14.2529 1.0127C13.6816 0.415039 13.043 0.412109 12.75 0.376953C10.6523 0.224609 7.50293 0.224609 7.50293 0.224609H7.49707C7.49707 0.224609 4.34766 0.224609 2.25 0.376953C1.95703 0.412109 1.31836 0.415039 0.74707 1.0127C0.295898 1.4668 0.152344 2.50098 0.152344 2.50098C0.152344 2.50098 0 3.7168 0 4.92969V6.06641C0 7.2793 0.149414 8.49512 0.149414 8.49512C0.149414 8.49512 0.295898 9.5293 0.744141 9.9834C1.31543 10.5811 2.06543 10.5605 2.39941 10.625C3.60059 10.7393 7.5 10.7744 7.5 10.7744C7.5 10.7744 10.6523 10.7686 12.75 10.6191C13.043 10.584 13.6816 10.5811 14.2529 9.9834C14.7041 9.5293 14.8506 8.49512 14.8506 8.49512C14.8506 8.49512 15 7.28223 15 6.06641V4.92969C15 3.7168 14.8506 2.50098 14.8506 2.50098ZM5.9502 7.44629V3.23047L10.002 5.3457L5.9502 7.44629Z" fill="#F4F6FA"/>
</svg>
